<svg xmlns="http://www.w3.org/2000/svg" width="1000" height="700" viewBox="0 0 1000 700"><defs><linearGradient id="bg" x2="1" y2="1"><stop stop-color="#163936"/><stop offset="1" stop-color="#0c172a"/></linearGradient><linearGradient id="line" x2="0" y2="1"><stop stop-color="#76a4fa" stop-opacity=".25"/><stop offset="1" stop-color="#76a4fa" stop-opacity="0"/></linearGradient></defs><rect width="1000" height="700" fill="url(#bg)"/><rect x="80" y="95" width="840" height="515" rx="12" fill="#0b1424" stroke="#365071"/><rect x="80" y="95" width="840" height="40" rx="12" fill="#17263c" stroke="none"/><circle cx="103" cy="115" r="4" fill="#536b8e"/><circle cx="119" cy="115" r="4" fill="#536b8e"/><circle cx="135" cy="115" r="4" fill="#536b8e"/><text x="416" y="120" font-family="Arial,sans-serif" font-size="10" fill="#9caecc" font-weight="400">PROJECT PREVIEW</text><text x="118" y="172" font-family="Arial,sans-serif" font-size="20" fill="#daeeea" font-weight="600">starter /</text><text x="667" y="170" font-family="Arial,sans-serif" font-size="12" fill="#8dabaa" font-weight="400">About       Community       Join</text><text x="132" y="262" font-family="Arial,sans-serif" font-size="12" fill="#92cbbd" font-weight="400">HELLO, NEW CONNECTIONS.</text><text x="130" y="330" font-family="Arial,sans-serif" font-size="62" fill="#e1f1e9" font-weight="600">Start here.</text><text x="130" y="398" font-family="Arial,sans-serif" font-size="62" fill="#a0d5c6" font-weight="600">Build together.</text><text x="134" y="445" font-family="Arial,sans-serif" font-size="15" fill="#9cbcaf" font-weight="400">A space for people, ideas, and possibilities.</text><rect x="134" y="479" width="150" height="43" rx="5" fill="#a1d4c3" stroke="none"/><text x="155" y="506" font-family="Arial,sans-serif" font-size="13" fill="#112e2b" font-weight="600">Explore the event</text><circle cx="731" cy="300" r="103" fill="none" stroke="#537f79" stroke-width="24"/><circle cx="701" cy="460" r="76" fill="none" stroke="#426564" stroke-width="24"/><circle cx="824" cy="423" r="47" fill="none" stroke="#83b9a5" stroke-width="24"/><path d="M663 258 770 364M684 238 791 344" stroke="#a0d5c6" stroke-width="3"/></svg>